<svg xmlns="http://www.w3.org/2000/svg" width="150" height="150"><style>.st1{stroke-width:4.0489}.st1,.st2,.st3{fill:none;stroke:#fff;stroke-miterlimit:10}.st2{stroke-width:2.6992}.st3{stroke-width:.6748}.st4{fill:#fff}.st5{font-family:&apos;GoudyOldStyleT-Regular&apos;}.st6{font-size:14.8167px}</style><path fill="#007298" d="M0 0h150v150H0z" id="Background"/><path class="st1" d="M85 69.2V45.5s-.4-7.9-11.7-12.8c0 0-10 3.4-11.6 12.9v16.6" id="Middle_Arch_3"/><path class="st2" d="M82.4 71.4V45.6s-.3-6.2-9.2-10c0 0-7.8 2.7-9.1 10.1v18.9" id="Middle_Arch_2"/><path class="st3" d="M81.2 70.5V45.8s-.3-5.3-7.9-8.6c0 0-6.7 2.3-7.8 8.6v18.9" id="Middle_Arch_1"/><path class="st3" d="M57.9 63.6V45.8s-.3-5.3-7.9-8.6c0 0-6.7 2.3-7.8 8.6v18.4" id="Left_Arch_1"/><path class="st3" d="M104.4 78.1V45.8s-.3-5.3-7.9-8.6c0 0-6.7 2.3-7.8 8.6v28.6" id="Right_Arch_1"/><path class="st2" d="M105.8 78.3V45.6s-.3-6.2-9.2-10c0 0-7.8 2.7-9.1 10.1v28.1" id="Right_Arch_2"/><path class="st2" d="M59.2 63.7v-18s-.3-6.2-9.2-10c0 0-7.8 2.7-9.1 10.1v19" id="Left_Arch_2"/><path class="st1" d="M108.3 78.9V45.5s-.4-7.9-11.7-12.8c0 0-10 3.4-11.6 12.9v27.2" id="Right_Arch_1_1_"/><path class="st1" d="M61.7 63.9V46.3s-.4-8.6-11.7-13.6c0 0-10 3.4-11.6 12.9v19.6" id="Left_Arch_1_1_"/><path class="st4" d="M35.4 66.8s.3-.1.8-.3c.6-.2 1.4-.5 2.4-.8 1-.3 2.3-.6 3.8-.9.7-.1 1.5-.3 2.4-.5.8-.1 1.7-.2 2.7-.4 1.9-.2 3.9-.4 6.1-.5h3.3c1.1 0 2.3.1 3.5.2 2.4.2 4.8.6 7.2 1.1 1.2.3 2.4.7 3.7 1 1.2.4 2.4.9 3.6 1.3 2.3 1.1 4.7 2.1 6.7 3.6.5.3 1.1.7 1.6 1l.7.4c.3.1.5.3.8.4.5.2 1 .4 1.4.7.5.2 1.1.4 1.6.6 2.1.7 4.2 1.4 6.3 1.9 2 .5 4 1 5.8 1.5 3.6.8 6.6 1.5 8.7 2 2.1.5 3.3.8 3.3.8s-1.2 0-3.4-.2c-2.2-.1-5.3-.4-9-.9-1.8-.3-3.9-.6-6-1s-4.3-.9-6.6-1.6c-.6-.2-1.1-.4-1.7-.6-.6-.2-1.2-.5-1.8-.8-.3-.1-.5-.3-.8-.4l-.4-.2-.2-.1-.3-.2-1.5-.9c-2-1.3-4.2-2.3-6.3-3.3-1.1-.4-2.2-.8-3.4-1.3-1.2-.3-2.3-.7-3.4-1-2.3-.5-4.6-1.1-6.8-1.3-1.1-.2-2.2-.3-3.3-.4-.5-.1-1.1-.1-1.6-.2-.5 0-1.1 0-1.6-.1-2.1-.1-4.1-.1-5.9-.1-.9 0-1.8.1-2.6.1-.8.1-1.6.1-2.4.2-1.5.1-2.8.2-3.9.4-2.2.6-3.5.8-3.5.8z" id="Ground_New"/><path class="st4" d="M11.1 82.6c.6.1 1.4.2 3.4.2h7.6c1.4 0 3-.1 3.5-.2-.1.5-.2 1.3-.2 2-.4-.2-1-.3-2.6-.4-.8 0-1.9-.1-3.7-.1v9.5c0 3 .1 5.9.2 6.7h-1c-.5 0-1 0-1.4.1.1-.8.2-3.7.2-6.8v-9.5h-3.2c-1.5.1-2.5.2-3.1.4 0-.3.3-1.4.3-1.9zm17.8 6.9c0-3.3 0-6.1-.2-6.7h1c.7 0 1.2 0 1.4-.1-.1.9-.2 3.4-.2 6.8v4.1c0 3 .1 6.1.2 6.7h-1c-.5 0-1.1 0-1.4.1.1-.8.2-3.7.2-6.8v-4.1zm22.9 0c0-3.3-.1-5.9-.2-6.7h.9c.6 0 1.8-.1 3.1-.1 2.8 0 4 .6 4.9 1.5.6.6 1.3 1.7 1.3 3.3.1 4.8-5 5.7-8.3 5.7-.1-.3-.2-.9-.3-1.1 2.2-.1 6.7-.6 6.6-4.2-.1-1.5-.6-2.7-1.7-3.3-.7-.5-1.7-.7-2.8-.7-.5 0-1.3 0-1.4.1-.1 0-.1.1-.1.5v9.2c0 2.9.1 5.7.2 6.7h-1.1c-.4 0-1 0-1.3.1.1-.9.2-3.7.2-6.8v-4.2zm-14.1 0c0-3.3-.1-5.9-.2-6.7h.9c.6 0 1.8-.1 3.1-.1 2.8 0 4 .6 4.9 1.5.6.6 1.3 1.7 1.3 3.3.1 4.8-5 5.7-8.3 5.7-.1-.3-.2-.9-.3-1.1 2.2-.1 6.7-.6 6.6-4.2-.1-1.5-.6-2.7-1.7-3.3-.7-.5-1.7-.7-2.8-.7-.5 0-1.3 0-1.4.1-.1 0-.1.1-.1.5v9.2c0 2.9.1 5.7.2 6.7h-1.1c-.4 0-1 0-1.3.1.1-.9.2-3.7.2-6.8v-4.2zm28.2 0c0-3.8-.1-6.1-.2-6.7h6.6c.5 0 1.4 0 1.9-.1-.1.3-.2 1.1-.2 1.9-.3-.2-.7-.3-1.9-.4-.7-.1-2-.1-4.1-.1 0 0-.1 0-.1.1v6c0 .1 0 .1.1.1h3.7c1.2 0 1.8-.1 2-.2-.1.5-.2 1.5-.2 1.9-.3-.2-.7-.3-1.6-.3-.8 0-3.5-.1-3.9-.1 0 0-.1 0-.1.1v1.7c0 4.6 0 5.2.2 5.4.1.1.3.1.5.1.5 0 1.2.1 2.2.1 2.2 0 3.2-.2 3.9-.5-.2.5-.3 1.4-.4 1.8h-1.2c-3.2 0-5-.1-5.9-.1h-1.5c.1-.8.2-3.4.2-6.7v-4zm13 0c0-3.3 0-6-.3-6.7h1.1c.5 0 2.3-.1 3.1-.1 1.6 0 3.1.2 4.1.8 1.2.8 2.1 2.1 2.1 3.8 0 2-1 3.7-2.8 5 1.5 2 3.2 4.3 4.8 6.1 1 1.1 1.7 1.7 2.1 1.9-.3.1-1 .1-1.5.1-1 0-1.6-.3-2.6-1.3-1.3-1.3-3.4-4.5-4.5-5.9-.1-.1-.2-.2-.3-.2H81c-.1 0-.1 0-.1.1v.7c0 2.9.1 5.4.2 6.5h-1c-.4 0-1.1 0-1.4.1.1-.8.2-3.7.2-6.8v-4.1zm2 1.9c0 .1 0 .2.1.2.5.1 1.6.2 2.9.2.7 0 1-.1 1.4-.3.9-.7 1.8-1.9 1.8-3.6 0-2.5-1.6-4-4.3-4-.7 0-1.4 0-1.7.1-.1 0-.1.1-.1.2v7.2zm16.7 2.8c-.1 0-.1 0-.1.1-.7 2-1.8 5-2.1 6.1h-.9c-.5 0-1 0-1.2.1.6-1.2 1.5-3.3 2.4-5.5l4.6-11.4c.3-.7.4-1 .5-1 .1 0 .2.2.6 1 .3.6 2.5 5.8 4.5 10.5 1 2.5 2.4 5.5 3 6.4h-1.1c-.6 0-1.2 0-1.5.1-.4-1.1-1.7-4.2-2.4-6.1 0 0 0-.1-.1-.1h-6.2zm5.7-1.4l-2.7-6.9-2.6 6.8v.1h5.3zm9.2-3.3c0-3.3 0-6-.3-6.7h1.1c.5 0 2.3-.1 3.1-.1 1.6 0 3.1.2 4.1.8 1.2.8 2.1 2.1 2.1 3.8 0 2-1 3.7-2.8 5 1.5 2 3.2 4.3 4.8 6.1 1 1.1 1.7 1.7 2.1 1.9-.3.1-1 .1-1.5.1-1 0-1.6-.3-2.6-1.3-1.3-1.3-3.4-4.5-4.5-5.9-.1-.1-.2-.2-.3-.2h-3.2c-.1 0-.1 0-.1.1v.7c0 2.9.1 5.4.2 6.5h-1c-.4 0-1.1 0-1.4.1.1-.8.2-3.7.2-6.8v-4.1zm1.9 1.9c0 .1 0 .2.1.2.5.1 1.6.2 2.9.2.7 0 1-.1 1.4-.3.9-.7 1.8-1.9 1.8-3.6 0-2.5-1.6-4-4.3-4-.7 0-1.4 0-1.7.1-.1 0-.1.1-.1.2v7.2zm16.9 2.3c0-.6-.1-1-.3-1.3-.8-1.4-3.2-5.6-3.9-6.6-.6-.9-1.6-2.4-2.3-3.1h1.2c.5 0 1.4 0 1.6-.1.2.4.8 1.6 1.1 2.3.4.7 3.3 5.7 3.8 6.4.9-1.6 3.2-5.6 3.7-6.7.3-.5.8-1.5 1-2h.8c.7 0 1.3 0 1.5-.1-.5.5-1.5 2.1-2 3-.7 1-3.2 5.3-3.8 6.7-.2.4-.3.7-.3 1.3 0 3 .1 5.6.2 6.6h-1c-.3 0-1.1 0-1.3.1-.1-.6 0-2.8 0-6.5z" id="_x22_Tipperary_x22_"/><text transform="translate(15.253 113.863)" id="_x22_Time_To_Take_It_All_In_x22_"><tspan x="0" y="0" class="st4 st5 st6">T</tspan><tspan x="8.9" y="0" class="st4 st5 st6">ime </tspan><tspan x="34.4" y="0" class="st4 st5 st6">t</tspan><tspan x="38.7" y="0" class="st4 st5 st6">o </tspan><tspan x="49.9" y="0" class="st4 st5 st6">t</tspan><tspan x="54.6" y="0" class="st4 st5 st6">a</tspan><tspan x="60.9" y="0" class="st4 st5 st6">k</tspan><tspan x="67.9" y="0" class="st4 st5 st6">e it all in</tspan></text><path fill="none" stroke="#fff" stroke-width="2" stroke-miterlimit="10" d="M5 5h140v140H5z" id="Frame"/></svg>