<?xml version="1.0" encoding="utf-8"?>
<!-- Generator: Adobe Illustrator 19.0.0, SVG Export Plug-In . SVG Version: 6.00 Build 0)  -->
<svg version="1.1" xmlns="http://www.w3.org/2000/svg" xmlns:xlink="http://www.w3.org/1999/xlink" x="0px" y="0px" width="150px"
	 height="150px" viewBox="0 0 150 150" style="enable-background:new 0 0 150 150;" xml:space="preserve">
<style type="text/css">
	.st0{fill:#007298;}
	.st1{fill:none;stroke:#FFFFFF;stroke-width:4.0489;stroke-miterlimit:10;}
	.st2{fill:none;stroke:#FFFFFF;stroke-width:2.6992;stroke-miterlimit:10;}
	.st3{fill:none;stroke:#FFFFFF;stroke-width:0.6748;stroke-miterlimit:10;}
	.st4{fill:#FFFFFF;}
	.st5{font-family:'GoudyOldStyleT-Regular';}
	.st6{font-size:14.8167px;}
	.st7{fill:none;stroke:#FFFFFF;stroke-width:2;stroke-miterlimit:10;}
</style>
<g id="Background">
	<rect class="st0" width="150" height="150"/>
</g>
<g id="Middle_Arch_3">
	<g>
		<path class="st1" d="M85,69.2V45.5c0,0-0.4-7.9-11.7-12.8c0,0-10,3.4-11.6,12.9v16.6"/>
	</g>
</g>
<g id="Middle_Arch_2">
	<g>
		<path class="st2" d="M82.4,71.4V45.6c0,0-0.3-6.2-9.2-10c0,0-7.8,2.7-9.1,10.1v18.9"/>
	</g>
</g>
<g id="Middle_Arch_1">
	<g>
		<path class="st3" d="M81.2,70.5V45.8c0,0-0.3-5.3-7.9-8.6c0,0-6.7,2.3-7.8,8.6v18.9"/>
	</g>
</g>
<g id="Left_Arch_1">
	<g>
		<path class="st3" d="M57.9,63.6V45.8c0,0-0.3-5.3-7.9-8.6c0,0-6.7,2.3-7.8,8.6v18.4"/>
	</g>
</g>
<g id="Right_Arch_1">
	<g>
		<path class="st3" d="M104.4,78.1V45.8c0,0-0.3-5.3-7.9-8.6c0,0-6.7,2.3-7.8,8.6v28.6"/>
	</g>
</g>
<g id="Right_Arch_2">
	<g>
		<path class="st2" d="M105.8,78.3V45.6c0,0-0.3-6.2-9.2-10c0,0-7.8,2.7-9.1,10.1v28.1"/>
	</g>
</g>
<g id="Left_Arch_2">
	<g>
		<path class="st2" d="M59.2,63.7v-18c0,0-0.3-6.2-9.2-10c0,0-7.8,2.7-9.1,10.1v19"/>
	</g>
</g>
<g id="Right_Arch_1_1_">
	<g>
		<path class="st1" d="M108.3,78.9V45.5c0,0-0.4-7.9-11.7-12.8c0,0-10,3.4-11.6,12.9v27.2"/>
	</g>
</g>
<g id="Left_Arch_1_1_">
	<g>
		<path class="st1" d="M61.7,63.9l0-17.6c0,0-0.4-8.6-11.7-13.6c0,0-10,3.4-11.6,12.9v19.6"/>
	</g>
</g>
<g id="Ground_New">
	<g>
		<path class="st4" d="M35.4,66.8c0,0,0.3-0.1,0.8-0.3c0.6-0.2,1.4-0.5,2.4-0.8c1-0.3,2.3-0.6,3.8-0.9c0.7-0.1,1.5-0.3,2.4-0.5
			c0.8-0.1,1.7-0.2,2.7-0.4c1.9-0.2,3.9-0.4,6.1-0.5c0.5,0,1.1,0,1.6,0c0.6,0,1.1,0,1.7,0c1.1,0,2.3,0.1,3.5,0.2
			c2.4,0.2,4.8,0.6,7.2,1.1c1.2,0.3,2.4,0.7,3.7,1c1.2,0.4,2.4,0.9,3.6,1.3c2.3,1.1,4.7,2.1,6.7,3.6c0.5,0.3,1.1,0.7,1.6,1l0.7,0.4
			c0.3,0.1,0.5,0.3,0.8,0.4c0.5,0.2,1,0.4,1.4,0.7c0.5,0.2,1.1,0.4,1.6,0.6c2.1,0.7,4.2,1.4,6.3,1.9c2,0.5,4,1,5.8,1.5
			c3.6,0.8,6.6,1.5,8.7,2c2.1,0.5,3.3,0.8,3.3,0.8s-1.2,0-3.4-0.2c-2.2-0.1-5.3-0.4-9-0.9c-1.8-0.3-3.9-0.6-6-1
			c-2.1-0.4-4.3-0.9-6.6-1.6c-0.6-0.2-1.1-0.4-1.7-0.6c-0.6-0.2-1.2-0.5-1.8-0.8c-0.3-0.1-0.5-0.3-0.8-0.4l-0.4-0.2l-0.2-0.1
			l-0.3-0.2c-0.5-0.3-1-0.6-1.5-0.9c-2-1.3-4.2-2.3-6.3-3.3c-1.1-0.4-2.2-0.8-3.4-1.3c-1.2-0.3-2.3-0.7-3.4-1
			c-2.3-0.5-4.6-1.1-6.8-1.3c-1.1-0.2-2.2-0.3-3.3-0.4c-0.5-0.1-1.1-0.1-1.6-0.2c-0.5,0-1.1,0-1.6-0.1c-2.1-0.1-4.1-0.1-5.9-0.1
			c-0.9,0-1.8,0.1-2.6,0.1c-0.8,0.1-1.6,0.1-2.4,0.2c-1.5,0.1-2.8,0.2-3.9,0.4C36.7,66.6,35.4,66.8,35.4,66.8z"/>
	</g>
</g>
<g id="_x22_Tipperary_x22_">
	<g>
		<path class="st4" d="M11.1,82.6c0.6,0.1,1.4,0.2,3.4,0.2h7.6c1.4,0,3-0.1,3.5-0.2c-0.1,0.5-0.2,1.3-0.2,2c-0.4-0.2-1-0.3-2.6-0.4
			c-0.8,0-1.9-0.1-3.7-0.1v9.5c0,3,0.1,5.9,0.2,6.7c-0.2,0-0.6,0-1,0c-0.5,0-1,0-1.4,0.1c0.1-0.8,0.2-3.7,0.2-6.8v-9.5
			c-1.1,0-1.7,0-3.2,0c-1.5,0.1-2.5,0.2-3.1,0.4C10.8,84.2,11.1,83.1,11.1,82.6z"/>
		<path class="st4" d="M28.9,89.5c0-3.3,0-6.1-0.2-6.7c0.2,0,0.7,0,1,0c0.7,0,1.2,0,1.4-0.1c-0.1,0.9-0.2,3.4-0.2,6.8v4.1
			c0,3,0.1,6.1,0.2,6.7c-0.2,0-0.7,0-1,0c-0.5,0-1.1,0-1.4,0.1c0.1-0.8,0.2-3.7,0.2-6.8V89.5z"/>
		<path class="st4" d="M51.8,89.5c0-3.3-0.1-5.9-0.2-6.7c0.3,0,0.6,0,0.9,0c0.6,0,1.8-0.1,3.1-0.1c2.8,0,4,0.6,4.9,1.5
			c0.6,0.6,1.3,1.7,1.3,3.3c0.1,4.8-5,5.7-8.3,5.7c-0.1-0.3-0.2-0.9-0.3-1.1c2.2-0.1,6.7-0.6,6.6-4.2c-0.1-1.5-0.6-2.7-1.7-3.3
			c-0.7-0.5-1.7-0.7-2.8-0.7c-0.5,0-1.3,0-1.4,0.1c-0.1,0-0.1,0.1-0.1,0.5v9.2c0,2.9,0.1,5.7,0.2,6.7c-0.3,0-0.7,0-1.1,0
			c-0.4,0-1,0-1.3,0.1c0.1-0.9,0.2-3.7,0.2-6.8V89.5z"/>
		<path class="st4" d="M37.7,89.5c0-3.3-0.1-5.9-0.2-6.7c0.3,0,0.6,0,0.9,0c0.6,0,1.8-0.1,3.1-0.1c2.8,0,4,0.6,4.9,1.5
			c0.6,0.6,1.3,1.7,1.3,3.3c0.1,4.8-5,5.7-8.3,5.7c-0.1-0.3-0.2-0.9-0.3-1.1c2.2-0.1,6.7-0.6,6.6-4.2c-0.1-1.5-0.6-2.7-1.7-3.3
			c-0.7-0.5-1.7-0.7-2.8-0.7c-0.5,0-1.3,0-1.4,0.1c-0.1,0-0.1,0.1-0.1,0.5v9.2c0,2.9,0.1,5.7,0.2,6.7c-0.3,0-0.7,0-1.1,0
			c-0.4,0-1,0-1.3,0.1c0.1-0.9,0.2-3.7,0.2-6.8V89.5z"/>
		<path class="st4" d="M65.9,89.5c0-3.8-0.1-6.1-0.2-6.7c0.3,0,0.9,0,1.4,0h5.2c0.5,0,1.4,0,1.9-0.1c-0.1,0.3-0.2,1.1-0.2,1.9
			c-0.3-0.2-0.7-0.3-1.9-0.4c-0.7-0.1-2-0.1-4.1-0.1c0,0-0.1,0-0.1,0.1v6c0,0.1,0,0.1,0.1,0.1c0.3,0,3,0,3.7,0c1.2,0,1.8-0.1,2-0.2
			c-0.1,0.5-0.2,1.5-0.2,1.9c-0.3-0.2-0.7-0.3-1.6-0.3c-0.8,0-3.5-0.1-3.9-0.1c0,0-0.1,0-0.1,0.1v1.7c0,4.6,0,5.2,0.2,5.4
			c0.1,0.1,0.3,0.1,0.5,0.1c0.5,0,1.2,0.1,2.2,0.1c2.2,0,3.2-0.2,3.9-0.5c-0.2,0.5-0.3,1.4-0.4,1.8c-0.1,0-0.3,0-1.2,0
			c-3.2,0-5-0.1-5.9-0.1c-0.7,0-1.2,0-1.5,0c0.1-0.8,0.2-3.4,0.2-6.7V89.5z"/>
		<path class="st4" d="M78.9,89.5c0-3.3,0-6-0.3-6.7c0.4,0,0.7,0,1.1,0c0.5,0,2.3-0.1,3.1-0.1c1.6,0,3.1,0.2,4.1,0.8
			c1.2,0.8,2.1,2.1,2.1,3.8c0,2-1,3.7-2.8,5c1.5,2,3.2,4.3,4.8,6.1c1,1.1,1.7,1.7,2.1,1.9c-0.3,0.1-1,0.1-1.5,0.1
			c-1,0-1.6-0.3-2.6-1.3c-1.3-1.3-3.4-4.5-4.5-5.9c-0.1-0.1-0.2-0.2-0.3-0.2c-0.5,0-2.2,0-3.2,0c-0.1,0-0.1,0-0.1,0.1v0.7
			c0,2.9,0.1,5.4,0.2,6.5c-0.2,0-0.6,0-1,0c-0.4,0-1.1,0-1.4,0.1c0.1-0.8,0.2-3.7,0.2-6.8V89.5z M80.9,91.4c0,0.1,0,0.2,0.1,0.2
			c0.5,0.1,1.6,0.2,2.9,0.2c0.7,0,1-0.1,1.4-0.3c0.9-0.7,1.8-1.9,1.8-3.6c0-2.5-1.6-4-4.3-4c-0.7,0-1.4,0-1.7,0.1
			c-0.1,0-0.1,0.1-0.1,0.2V91.4z"/>
		<path class="st4" d="M97.6,94.2c-0.1,0-0.1,0-0.1,0.1c-0.7,2-1.8,5-2.1,6.1c-0.2,0-0.4,0-0.9,0c-0.5,0-1,0-1.2,0.1
			c0.6-1.2,1.5-3.3,2.4-5.5l4.6-11.4c0.3-0.7,0.4-1,0.5-1c0.1,0,0.2,0.2,0.6,1c0.3,0.6,2.5,5.8,4.5,10.5c1,2.5,2.4,5.5,3,6.4
			c-0.4,0-0.8,0-1.1,0c-0.6,0-1.2,0-1.5,0.1c-0.4-1.1-1.7-4.2-2.4-6.1c0,0,0-0.1-0.1-0.1H97.6z M103.3,92.8
			C103.3,92.8,103.3,92.8,103.3,92.8l-2.7-6.9L98,92.7c0,0.1,0,0.1,0,0.1H103.3z"/>
		<path class="st4" d="M112.5,89.5c0-3.3,0-6-0.3-6.7c0.4,0,0.7,0,1.1,0c0.5,0,2.3-0.1,3.1-0.1c1.6,0,3.1,0.2,4.1,0.8
			c1.2,0.8,2.1,2.1,2.1,3.8c0,2-1,3.7-2.8,5c1.5,2,3.2,4.3,4.8,6.1c1,1.1,1.7,1.7,2.1,1.9c-0.3,0.1-1,0.1-1.5,0.1
			c-1,0-1.6-0.3-2.6-1.3c-1.3-1.3-3.4-4.5-4.5-5.9c-0.1-0.1-0.2-0.2-0.3-0.2c-0.5,0-2.2,0-3.2,0c-0.1,0-0.1,0-0.1,0.1v0.7
			c0,2.9,0.1,5.4,0.2,6.5c-0.2,0-0.6,0-1,0c-0.4,0-1.1,0-1.4,0.1c0.1-0.8,0.2-3.7,0.2-6.8V89.5z M114.4,91.4c0,0.1,0,0.2,0.1,0.2
			c0.5,0.1,1.6,0.2,2.9,0.2c0.7,0,1-0.1,1.4-0.3c0.9-0.7,1.8-1.9,1.8-3.6c0-2.5-1.6-4-4.3-4c-0.7,0-1.4,0-1.7,0.1
			c-0.1,0-0.1,0.1-0.1,0.2V91.4z"/>
		<path class="st4" d="M131.3,93.7c0-0.6-0.1-1-0.3-1.3c-0.8-1.4-3.2-5.6-3.9-6.6c-0.6-0.9-1.6-2.4-2.3-3.1c0.3,0,0.7,0,1.2,0
			c0.5,0,1.4,0,1.6-0.1c0.2,0.4,0.8,1.6,1.1,2.3c0.4,0.7,3.3,5.7,3.8,6.4c0.9-1.6,3.2-5.6,3.7-6.7c0.3-0.5,0.8-1.5,1-2
			c0.2,0,0.6,0,0.8,0c0.7,0,1.3,0,1.5-0.1c-0.5,0.5-1.5,2.1-2,3c-0.7,1-3.2,5.3-3.8,6.7c-0.2,0.4-0.3,0.7-0.3,1.3
			c0,3,0.1,5.6,0.2,6.6c-0.2,0-0.6,0-1,0c-0.3,0-1.1,0-1.3,0.1C131.2,99.6,131.3,97.4,131.3,93.7z"/>
	</g>
</g>
<g id="_x22_Time_To_Take_It_All_In_x22_">
	<text transform="matrix(1 0 0 1 15.2526 113.8628)"><tspan x="0" y="0" class="st4 st5 st6">T</tspan><tspan x="8.9" y="0" class="st4 st5 st6">ime </tspan><tspan x="34.4" y="0" class="st4 st5 st6">t</tspan><tspan x="38.7" y="0" class="st4 st5 st6">o </tspan><tspan x="49.9" y="0" class="st4 st5 st6">t</tspan><tspan x="54.6" y="0" class="st4 st5 st6">a</tspan><tspan x="60.9" y="0" class="st4 st5 st6">k</tspan><tspan x="67.9" y="0" class="st4 st5 st6">e it all in</tspan></text>
</g>
<g id="Frame">
	<rect x="5" y="5" class="st7" width="140" height="140"/>
</g>
</svg>
